<svg xmlns="http://www.w3.org/2000/svg" viewBox="0 0 131.9 23"><defs><style>.cls-1{fill:#ef3340;}.cls-2{fill:#0c2340;}</style></defs><g id="Layer_2" data-name="Layer 2"><g id="Layer_1-2" data-name="Layer 1"><g id="Isotipo"><path class="cls-1" d="M24.4,0H6.9a.1.1,0,0,0-.1.1L4.4,5.3c0,.1,0,.1.1.1H19.4A4,4,0,0,0,23.1,3L24.4.1C24.5.1,24.4,0,24.4,0Z"/><path class="cls-1" d="M20,17.6H2.5a.1.1,0,0,0-.1.1L0,22.9c0,.1,0,.1.1.1H15a4,4,0,0,0,3.7-2.4L20,17.7C20.1,17.7,20,17.6,20,17.6Z"/><path class="cls-1" d="M11.2,14.2a4,4,0,0,0,3.7-2.4l1.3-2.9c0-.1,0-.1-.1-.1H6.1a.1.1,0,0,0-.1.1L3.6,14.1c0,.1,0,.1.1.1Z"/></g><g id="Letras"><path class="cls-2" d="M41.9,3.9H32.2a.1.1,0,0,0-.1.1V19a.1.1,0,0,0,.1.1h9.7A.1.1,0,0,0,42,19V16.4a.1.1,0,0,0-.1-.1H35.3V12.9h6.4a.1.1,0,0,0,.1-.1V10.2a.1.1,0,0,0-.1-.1H35.3V6.8h6.6a.1.1,0,0,0,.1-.1V4A.1.1,0,0,0,41.9,3.9Z"/><path class="cls-2" d="M73.8,3.9H64.1A.1.1,0,0,0,64,4V19a.1.1,0,0,0,.1.1h9.7a.1.1,0,0,0,.1-.1V16.4a.1.1,0,0,0-.1-.1H67.2V12.9h6.4a.1.1,0,0,0,.1-.1V10.2a.1.1,0,0,0-.1-.1H67.2V6.8h6.6c.1,0,.1-.1.1-.2V4A.1.1,0,0,0,73.8,3.9Z"/><path class="cls-2" d="M61.1,3.9H56.7a.1.1,0,0,0-.1.1l-3.7,9.1L49.3,4l-.1-.1H44.9a.1.1,0,0,0-.1.1V19a.1.1,0,0,0,.1.1h3A.1.1,0,0,0,48,19V8.5L52.2,19l.1.1h1.3a.1.1,0,0,0,.1-.1L58,8.4V19a.1.1,0,0,0,.1.1h3a.1.1,0,0,0,.1-.1V4A.1.1,0,0,0,61.1,3.9Z"/><path class="cls-2" d="M88.5,8.8a4.73,4.73,0,0,0-5.1-4.9H76.8a.1.1,0,0,0-.1.1V19a.1.1,0,0,0,.1.1h3a.1.1,0,0,0,.1-.1V13.7h2L84.8,19l.1.1h3.4c.1,0,.1-.1.1-.2l-3.3-5.6A4.35,4.35,0,0,0,88.5,8.8Zm-5.6,2.1h-3V6.8h3a2.06,2.06,0,1,1,0,4.1Z"/><path class="cls-2" d="M126.1,4l-.1-.1h-3.6a.1.1,0,0,0-.1.1l-5.9,15c0,.1,0,.2.1.2h3.4a.1.1,0,0,0,.1-.1l.9-2.5h6.5l.9,2.5.1.1h3.4c.1,0,.1-.1.1-.2Zm-4.3,9.7,2.4-6.3,2.4,6.3Z"/><path class="cls-2" d="M119.2,3.9h-3.4a.1.1,0,0,0-.1.1L112,10l-3.7-6-.1-.1h-3.4c-.1,0-.1.1-.1.2l5.7,8.8V19a.1.1,0,0,0,.1.1h3a.1.1,0,0,0,.1-.1V12.9l5.7-8.8C119.3,4,119.3,3.9,119.2,3.9Z"/><path class="cls-2" d="M105.5,10.8h0l-6.6-.1a.1.1,0,0,0-.1.1v2.5a.1.1,0,0,0,.1.1h3.5a5.22,5.22,0,0,1-1.4,1.9,5.17,5.17,0,0,1-3.2,1.1,5,5,0,0,1-5-5.7,4.9,4.9,0,0,1,3.7-4.2,5.06,5.06,0,0,1,5.3,1.9l2-2.2A7.46,7.46,0,0,0,98,3.5a7.9,7.9,0,1,0-.2,15.8,8.32,8.32,0,0,0,5.1-1.8,7.71,7.71,0,0,0,2.6-4.5h0V10.8Z"/></g></g></g></svg>